<svg width="21" height="19" fill="none" xmlns="http://www.w3.org/2000/svg"><path d="M10.345 18.113l.097.085.099-.084 6.733-5.78v-.001c1.35-1.176 2.277-2.663 2.678-4.302.276-1.122.191-1.822.165-1.981-.285-3.001-2.5-5.2-5.29-5.2a5.304 5.304 0 00-4.378 2.302C9.488 1.712 7.921.85 6.173.85c-2.79 0-5.005 2.199-5.29 5.2-.026.159-.11.86.165 1.98.401 1.64 1.329 3.127 2.677 4.303l6.62 5.78zM18.95 7.798h0c-.352 1.435-1.168 2.745-2.36 3.785h-.001l-6.14 5.273-6.035-5.27h0C3.217 10.542 2.401 9.232 2.05 7.797h0a5.486 5.486 0 01-.169-1.188 2.442 2.442 0 01.02-.406h0l.005-.036h0l.002-.009c.231-2.51 2.035-4.306 4.265-4.306 1.65 0 3.106.975 3.799 2.553 0 0 0 0 0 0l.336.768.138.313.137-.313.337-.768s0 0 0 0a4.267 4.267 0 013.907-2.552c2.23 0 4.034 1.795 4.27 4.339h0l.001.005V6.2c.002.012.026.152.02.411a5.481 5.481 0 01-.168 1.188z" fill="#fff" stroke="#fff" stroke-width=".3"/></svg>