<svg width="21" height="19" fill="none" xmlns="http://www.w3.org/2000/svg"><path d="M10.442 18.198l-.098-.085-6.619-5.78 6.717 5.865zm0 0l.099-.084m-.099.084l.099-.084m0 0l6.733-5.78v-.001m-6.733 5.78l6.734-5.78m0 0c1.348-1.176 2.276-2.663 2.677-4.302.276-1.122.191-1.822.165-1.981m-2.842 6.283l2.842-6.283m0 0c-.285-3.001-2.5-5.2-5.29-5.2a5.304 5.304 0 00-4.378 2.302C9.488 1.712 7.921.85 6.173.85c-2.79 0-5.005 2.199-5.29 5.2-.026.159-.11.86.165 1.98.401 1.64 1.329 3.127 2.677 4.302L20.117 6.05z" fill="#fff" stroke="#fff" stroke-width=".3"/></svg>