<svg width="171" height="65" fill="none" xmlns="http://www.w3.org/2000/svg"><path d="M13.176 29.432c-2.232 0-4.224-.516-5.976-1.548a11.06 11.06 0 01-4.032-4.248c-.936-1.8-1.404-3.756-1.404-5.868 0-2.472.624-4.584 1.872-6.336C4.884 9.656 6.48 8.324 8.424 7.436c1.968-.888 3.972-1.332 6.012-1.332 2.28 0 4.284.54 6.012 1.62 1.728 1.056 3.048 2.46 3.96 4.212a11.67 11.67 0 011.404 5.58c0 2.184-.576 4.188-1.728 6.012-1.152 1.824-2.7 3.264-4.644 4.32-1.92 1.056-4.008 1.584-6.264 1.584zm1.26-.792c1.536 0 2.916-.396 4.14-1.188 1.224-.792 2.184-1.944 2.88-3.456.72-1.536 1.08-3.36 1.08-5.472 0-2.232-.396-4.224-1.188-5.976-.768-1.752-1.884-3.12-3.348-4.104-1.44-.984-3.12-1.476-5.04-1.476-2.496 0-4.44.852-5.832 2.556-1.392 1.68-2.088 4.008-2.088 6.984 0 2.28.396 4.344 1.188 6.192.792 1.848 1.896 3.3 3.312 4.356 1.44 1.056 3.072 1.584 4.896 1.584zm14.299.648c-1.128 0-1.692-.444-1.692-1.332 0-.432.12-.756.36-.972.24-.24.54-.36.9-.36.144 0 .324.024.54.072.24.048.42.072.54.072.768 0 1.416-.492 1.944-1.476.552-.984.96-2.196 1.224-3.636.288-1.464.432-2.856.432-4.176 0-.792-.18-1.308-.54-1.548-.336-.24-1.02-.384-2.052-.432-.072 0-.108-.072-.108-.216 0-.144.036-.216.108-.216l5.796.036h6.264c.072 0 .108.072.108.216 0 .144-.036.216-.108.216-.648.024-1.116.096-1.404.216-.288.12-.492.348-.612.684-.096.336-.144.888-.144 1.656v7.992c0 .768.048 1.32.144 1.656.12.312.312.528.576.648.288.096.768.156 1.44.18.072 0 .108.072.108.216 0 .144-.036.216-.108.216-.624 0-1.104-.012-1.44-.036l-1.908-.036-2.016.036c-.36.024-.84.036-1.44.036-.072 0-.108-.072-.108-.216 0-.144.036-.216.108-.216.672-.024 1.152-.084 1.44-.18a.975.975 0 00.576-.648c.12-.336.18-.888.18-1.656V18.02c0-.816-.024-1.356-.072-1.62-.048-.264-.168-.432-.36-.504-.168-.072-.528-.108-1.08-.108h-.324c-.624 0-1.068.06-1.332.18-.24.096-.408.288-.504.576-.096.264-.18.744-.252 1.44l-.072.72c-.216 2.016-.48 3.744-.792 5.184-.288 1.416-.78 2.676-1.476 3.78-.696 1.08-1.644 1.62-2.844 1.62zm24.11-8.46c3.337 0 5.005 1.248 5.005 3.744 0 1.32-.48 2.4-1.44 3.24-.96.84-2.196 1.26-3.708 1.26-.36 0-1.044-.024-2.052-.072a67.835 67.835 0 00-2.448-.072l-1.944.036c-.36.024-.864.036-1.512.036-.072 0-.108-.072-.108-.216 0-.144.036-.216.108-.216.648 0 1.116-.06 1.404-.18a.978.978 0 00.612-.684c.12-.36.18-.9.18-1.62V18.02c0-.72-.06-1.248-.18-1.584-.096-.36-.3-.6-.612-.72-.288-.12-.744-.18-1.368-.18-.072 0-.108-.072-.108-.216 0-.144.036-.216.108-.216.624 0 1.116.012 1.476.036l1.944.036 2.124-.036c.408-.024.96-.036 1.656-.036.072 0 .108.072.108.216 0 .144-.036.216-.108.216-.768 0-1.332.072-1.692.216-.36.144-.6.396-.72.756-.12.336-.18.864-.18 1.584v3.168c.96-.288 2.112-.432 3.456-.432zm-.863 7.704c2.112 0 3.168-1.056 3.168-3.168 0-1.2-.288-2.136-.864-2.808-.576-.696-1.476-1.044-2.7-1.044-.816 0-1.548.108-2.196.324v4.248c0 .888.18 1.524.54 1.908.36.36 1.044.54 2.052.54zm18.683-13.428c.144 0 .228.024.252.072.024.024.036.108.036.252 0 .48-.012.912-.036 1.296-.024.36-.048.672-.072.936l-.072 2.124c0 .048-.072.072-.216.072-.12 0-.192-.024-.216-.072-.216-1.488-.624-2.544-1.224-3.168-.6-.648-1.44-.972-2.52-.972-.888 0-1.476.168-1.764.504-.264.336-.396.984-.396 1.944v7.992c0 .72.048 1.26.144 1.62.12.336.324.564.612.684.312.12.792.18 1.44.18.048 0 .072.072.072.216 0 .144-.024.216-.072.216-.648 0-1.152-.012-1.512-.036l-1.872-.036-1.944.036c-.36.024-.864.036-1.512.036-.072 0-.108-.072-.108-.216 0-.144.036-.216.108-.216.648 0 1.116-.06 1.404-.18a.978.978 0 00.612-.684c.12-.36.18-.9.18-1.62V18.02c0-.72-.06-1.248-.18-1.584-.096-.36-.3-.6-.612-.72-.288-.12-.744-.18-1.368-.18-.072 0-.108-.072-.108-.216 0-.144.036-.216.108-.216h10.836zm16.381 11.952c.096 0 .156.06.18.18.048.096.024.168-.072.216l-3.708 1.764a.714.714 0 01-.324.072c-.312 0-.612-.192-.9-.576-.264-.408-.444-.96-.54-1.656l-2.052 1.116c-1.368.72-2.508 1.08-3.42 1.08-.744 0-1.332-.192-1.764-.576-.408-.408-.612-.936-.612-1.584 0-.696.252-1.236.756-1.62.528-.384 1.488-.816 2.88-1.296l4.14-1.44V19.82c0-1.536-.192-2.628-.576-3.276-.36-.672-.888-1.008-1.584-1.008-.744 0-1.332.276-1.764.828-.408.528-.66 1.224-.756 2.088-.096 1.056-.624 1.584-1.584 1.584-.432 0-.768-.108-1.008-.324-.24-.216-.36-.516-.36-.9 0-.576.372-1.176 1.116-1.8.768-.648 1.68-1.176 2.736-1.584 1.056-.432 2.004-.648 2.844-.648 1.008 0 1.824.336 2.448 1.008.624.648.936 1.632.936 2.952v6.372c0 .792.108 1.38.324 1.764.24.384.6.576 1.08.576.432 0 .948-.132 1.548-.396h.036zm-5.436-.54V23.24l-3.168 1.188c-.576.216-.996.468-1.26.756-.24.264-.36.6-.36 1.008 0 .504.144.9.432 1.188.288.288.66.432 1.116.432.528 0 1.056-.144 1.584-.432l1.656-.864z" fill="#DECBA4"/><path d="M106.992 26.234c-.54 0-1.056-.252-1.548-.756v4.014c0 .36.036.624.108.792.084.168.234.282.45.342.228.072.576.108 1.044.108.024 0 .036.036.036.108 0 .072-.012.108-.036.108-.396 0-.708-.006-.936-.018l-1.26-.018-1.368.018c-.24.012-.564.018-.972.018-.036 0-.054-.036-.054-.108 0-.072.018-.108.054-.108.492 0 .858-.036 1.098-.108.24-.06.402-.174.486-.342.084-.168.126-.432.126-.792v-4.41c-.768.768-1.518 1.152-2.25 1.152-.432 0-.828-.138-1.188-.414-.36-.288-.642-.696-.846-1.224-.204-.54-.306-1.164-.306-1.872 0-.852.156-1.572.468-2.16.324-.6.72-1.038 1.188-1.314.48-.288.942-.432 1.386-.432.54 0 1.056.252 1.548.756V15.29c0-.432-.042-.738-.126-.918-.072-.192-.216-.288-.432-.288-.204 0-.462.078-.774.234h-.036c-.036 0-.066-.03-.09-.09-.024-.06-.018-.096.018-.108l2.376-1.152a.2.2 0 01.09-.018c.048 0 .09.018.126.054.048.036.072.078.072.126v6.84c.756-.768 1.5-1.152 2.232-1.152.432 0 .828.144 1.188.432.36.276.642.684.846 1.224.216.528.324 1.146.324 1.854 0 .852-.162 1.572-.486 2.16-.324.588-.72 1.026-1.188 1.314-.468.288-.924.432-1.368.432zm-4.392-.594c.54 0 1.08-.294 1.62-.882v-4.392a3.276 3.276 0 00-.828-.846c-.288-.216-.576-.324-.864-.324-.468 0-.834.27-1.098.81-.264.54-.396 1.278-.396 2.214 0 1.08.144 1.92.432 2.52.288.6.666.9 1.134.9zm4.446-6.228c-.54 0-1.074.288-1.602.864v4.428c.252.36.522.642.81.846.3.204.594.306.882.306.468 0 .834-.27 1.098-.81.264-.54.396-1.278.396-2.214 0-1.068-.15-1.902-.45-2.502-.288-.612-.666-.918-1.134-.918zm7.802 6.822c-.708 0-1.332-.168-1.872-.504-.54-.348-.96-.81-1.26-1.386a4.279 4.279 0 01-.432-1.908c0-.78.192-1.44.576-1.98.384-.552.876-.96 1.476-1.224a4.352 4.352 0 011.836-.414c.708 0 1.332.174 1.872.522.54.348.954.81 1.242 1.386.288.564.432 1.164.432 1.8 0 .732-.18 1.38-.54 1.944a3.607 3.607 0 01-1.404 1.314c-.588.3-1.23.45-1.926.45zm.522-.342c.6 0 1.062-.234 1.386-.702.324-.468.486-1.17.486-2.106 0-.78-.12-1.464-.36-2.052-.228-.6-.546-1.056-.954-1.368a2.145 2.145 0 00-1.368-.486c-.588 0-1.044.228-1.368.684-.312.444-.468 1.104-.468 1.98 0 .756.114 1.446.342 2.07.228.612.54 1.098.936 1.458.408.348.864.522 1.368.522zm6.092.108c-.024 0-.036-.036-.036-.108 0-.072.012-.108.036-.108.324 0 .564-.03.72-.09a.489.489 0 00.306-.342c.06-.18.09-.45.09-.81v-3.996c0-.468-.048-.78-.144-.936-.096-.168-.3-.252-.612-.252-.96 0-1.506.678-1.638 2.034-.012.024-.054.036-.126.036-.06 0-.09-.012-.09-.036l-.036-1.17c-.024-.48-.036-.822-.036-1.026 0-.072.006-.114.018-.126.012-.024.054-.036.126-.036.24 0 .456.006.648.018l2.448.018 2.484-.018c.204-.012.438-.018.702-.018.072 0 .114.012.126.036.012.012.018.054.018.126 0 .204-.012.546-.036 1.026l-.036 1.17c0 .024-.036.036-.108.036-.072 0-.108-.012-.108-.036-.132-1.356-.678-2.034-1.638-2.034-.312 0-.516.084-.612.252-.084.156-.126.468-.126.936v3.996c0 .36.024.63.072.81.06.168.162.282.306.342.156.06.39.09.702.09.036 0 .054.036.054.108 0 .072-.018.108-.054.108-.312 0-.558-.006-.738-.018l-.936-.018-.972.018a12.5 12.5 0 01-.774.018zm9.752.234c-.708 0-1.332-.168-1.872-.504-.54-.348-.96-.81-1.26-1.386a4.279 4.279 0 01-.432-1.908c0-.78.192-1.44.576-1.98.384-.552.876-.96 1.476-1.224a4.352 4.352 0 011.836-.414c.708 0 1.332.174 1.872.522.54.348.954.81 1.242 1.386.288.564.432 1.164.432 1.8 0 .732-.18 1.38-.54 1.944a3.607 3.607 0 01-1.404 1.314c-.588.3-1.23.45-1.926.45zm.522-.342c.6 0 1.062-.234 1.386-.702.324-.468.486-1.17.486-2.106 0-.78-.12-1.464-.36-2.052-.228-.6-.546-1.056-.954-1.368a2.145 2.145 0 00-1.368-.486c-.588 0-1.044.228-1.368.684-.312.444-.468 1.104-.468 1.98 0 .756.114 1.446.342 2.07.228.612.54 1.098.936 1.458.408.348.864.522 1.368.522zm9.979-6.84c.072 0 .114.012.126.036.012.012.018.054.018.126a10.48 10.48 0 01-.054 1.116l-.036 1.062c0 .024-.036.036-.108.036-.06 0-.096-.012-.108-.036-.108-.744-.312-1.272-.612-1.584-.3-.324-.72-.486-1.26-.486-.444 0-.738.084-.882.252-.132.168-.198.492-.198.972v3.996c0 .36.024.63.072.81.06.168.162.282.306.342.156.06.396.09.72.09.024 0 .036.036.036.108 0 .072-.012.108-.036.108-.324 0-.576-.006-.756-.018l-.936-.018-.972.018c-.18.012-.432.018-.756.018-.036 0-.054-.036-.054-.108 0-.072.018-.108.054-.108.324 0 .558-.03.702-.09a.489.489 0 00.306-.342c.06-.18.09-.45.09-.81V20.51c0-.36-.03-.624-.09-.792a.495.495 0 00-.306-.36c-.144-.06-.372-.09-.684-.09-.036 0-.054-.036-.054-.108 0-.072.018-.108.054-.108h5.418zm6.355-.234c.504 0 .966.132 1.386.396.432.264.774.648 1.026 1.152.264.504.396 1.092.396 1.764 0 .924-.204 1.698-.612 2.322-.408.612-.912 1.062-1.512 1.35-.6.288-1.2.432-1.8.432-.348 0-.66-.03-.936-.09a3.809 3.809 0 01-.846-.27v3.618c0 .36.042.624.126.792.096.168.258.282.486.342.24.072.612.108 1.116.108.036 0 .054.036.054.108 0 .072-.018.108-.054.108-.42 0-.75-.006-.99-.018l-1.35-.018-1.08.018c-.18.012-.432.018-.756.018-.024 0-.036-.036-.036-.108 0-.072.012-.108.036-.108.348 0 .606-.036.774-.108a.54.54 0 00.36-.342c.06-.168.09-.432.09-.792V20.51c0-.504-.096-.834-.288-.99-.192-.168-.564-.252-1.116-.252-.036 0-.054-.036-.054-.108 0-.072.018-.108.054-.108h2.268c.144 0 .24.03.288.09.048.06.072.18.072.36v.738c.504-.492.99-.852 1.458-1.08a3.253 3.253 0 011.44-.342zm-.63 7.02c.624 0 1.122-.27 1.494-.81.384-.552.576-1.332.576-2.34 0-.972-.222-1.728-.666-2.268-.432-.54-.984-.81-1.656-.81a2.31 2.31 0 00-1.08.252 3.875 3.875 0 00-.936.738v4.158c.3.348.624.618.972.81.348.18.78.27 1.296.27zm11.554-.81c.048 0 .078.03.09.09.024.048.012.084-.036.108l-1.854.882a.357.357 0 01-.162.036c-.156 0-.306-.096-.45-.288-.132-.204-.222-.48-.27-.828l-1.026.558c-.684.36-1.254.54-1.71.54-.372 0-.666-.096-.882-.288-.204-.204-.306-.468-.306-.792 0-.348.126-.618.378-.81.264-.192.744-.408 1.44-.648l2.07-.72V21.41c0-.768-.096-1.314-.288-1.638-.18-.336-.444-.504-.792-.504-.372 0-.666.138-.882.414-.204.264-.33.612-.378 1.044-.048.528-.312.792-.792.792-.216 0-.384-.054-.504-.162a.574.574 0 01-.18-.45c0-.288.186-.588.558-.9.384-.324.84-.588 1.368-.792.528-.216 1.002-.324 1.422-.324.504 0 .912.168 1.224.504.312.324.468.816.468 1.476v3.186c0 .396.054.69.162.882.12.192.3.288.54.288.216 0 .474-.066.774-.198h.018zm-2.718-.27V23.12l-1.584.594c-.288.108-.498.234-.63.378a.72.72 0 00-.18.504c0 .252.072.45.216.594.144.144.33.216.558.216.264 0 .528-.072.792-.216l.828-.432zm10.78 1.476c-.54 0-1.056-.252-1.548-.756v4.014c0 .36.036.624.108.792.084.168.234.282.45.342.228.072.576.108 1.044.108.024 0 .036.036.036.108 0 .072-.012.108-.036.108-.396 0-.708-.006-.936-.018l-1.26-.018-1.368.018c-.24.012-.564.018-.972.018-.036 0-.054-.036-.054-.108 0-.072.018-.108.054-.108.492 0 .858-.036 1.098-.108.24-.06.402-.174.486-.342.084-.168.126-.432.126-.792v-4.41c-.768.768-1.518 1.152-2.25 1.152-.432 0-.828-.138-1.188-.414-.36-.288-.642-.696-.846-1.224-.204-.54-.306-1.164-.306-1.872 0-.852.156-1.572.468-2.16.324-.6.72-1.038 1.188-1.314.48-.288.942-.432 1.386-.432.54 0 1.056.252 1.548.756V15.29c0-.432-.042-.738-.126-.918-.072-.192-.216-.288-.432-.288-.204 0-.462.078-.774.234h-.036c-.036 0-.066-.03-.09-.09-.024-.06-.018-.096.018-.108l2.376-1.152a.2.2 0 01.09-.018c.048 0 .09.018.126.054.048.036.072.078.072.126v6.84c.756-.768 1.5-1.152 2.232-1.152.432 0 .828.144 1.188.432.36.276.642.684.846 1.224.216.528.324 1.146.324 1.854 0 .852-.162 1.572-.486 2.16-.324.588-.72 1.026-1.188 1.314-.468.288-.924.432-1.368.432zm-4.392-.594c.54 0 1.08-.294 1.62-.882v-4.392a3.276 3.276 0 00-.828-.846c-.288-.216-.576-.324-.864-.324-.468 0-.834.27-1.098.81-.264.54-.396 1.278-.396 2.214 0 1.08.144 1.92.432 2.52.288.6.666.9 1.134.9zm4.446-6.228c-.54 0-1.074.288-1.602.864v4.428c.252.36.522.642.81.846.3.204.594.306.882.306.468 0 .834-.27 1.098-.81.264-.54.396-1.278.396-2.214 0-1.068-.15-1.902-.45-2.502-.288-.612-.666-.918-1.134-.918z" fill="#fff"/><path d="M57.176 58.432c-2.232 0-4.224-.516-5.976-1.548a11.06 11.06 0 01-4.032-4.248c-.936-1.8-1.404-3.756-1.404-5.868 0-2.472.624-4.584 1.872-6.336 1.248-1.776 2.844-3.108 4.788-3.996 1.968-.888 3.972-1.332 6.012-1.332 2.28 0 4.284.54 6.012 1.62 1.728 1.056 3.048 2.46 3.96 4.212a11.67 11.67 0 011.404 5.58c0 2.184-.576 4.188-1.728 6.012-1.152 1.824-2.7 3.264-4.644 4.32-1.92 1.056-4.008 1.584-6.264 1.584zm1.26-.792c1.536 0 2.916-.396 4.14-1.188 1.224-.792 2.184-1.944 2.88-3.456.72-1.536 1.08-3.36 1.08-5.472 0-2.232-.396-4.224-1.188-5.976-.768-1.752-1.884-3.12-3.348-4.104-1.44-.984-3.12-1.476-5.04-1.476-2.496 0-4.44.852-5.832 2.556-1.392 1.68-2.088 4.008-2.088 6.984 0 2.28.396 4.344 1.188 6.192.792 1.848 1.896 3.3 3.312 4.356 1.44 1.056 3.072 1.584 4.896 1.584zm25.15-13.536c.145 0 .228.024.252.072.025.024.037.108.037.252 0 .48-.013.912-.037 1.296-.023.36-.047.672-.072.936l-.072 2.124c0 .048-.072.072-.216.072-.12 0-.191-.024-.215-.072-.217-1.488-.625-2.544-1.225-3.168-.6-.648-1.44-.972-2.52-.972-.888 0-1.475.168-1.764.504-.264.336-.395.984-.395 1.944v7.992c0 .72.047 1.26.144 1.62.12.336.323.564.612.684.312.12.791.18 1.44.18.047 0 .071.072.071.216 0 .144-.023.216-.072.216-.648 0-1.151-.012-1.511-.036l-1.873-.036-1.944.036c-.36.024-.864.036-1.511.036-.073 0-.109-.072-.109-.216 0-.144.037-.216.109-.216.647 0 1.115-.06 1.403-.18a.978.978 0 00.613-.684c.12-.36.18-.9.18-1.62V47.02c0-.72-.06-1.248-.18-1.584-.096-.36-.3-.6-.612-.72-.288-.12-.745-.18-1.368-.18-.073 0-.109-.072-.109-.216 0-.144.037-.216.109-.216h10.835zm19.082 13.464c.048 0 .072.072.072.216 0 .144-.024.216-.072.216-.648 0-1.152-.012-1.512-.036l-1.872-.036-1.98.036c-.36.024-.852.036-1.476.036-.072 0-.108-.072-.108-.216 0-.144.036-.216.108-.216.648 0 1.116-.06 1.404-.18a.978.978 0 00.612-.684c.12-.36.18-.9.18-1.62v-7.128l-7.236 7.236c0 .696.048 1.212.144 1.548.12.312.336.528.648.648s.78.18 1.404.18c.048 0 .072.072.072.216 0 .144-.024.216-.072.216-.648 0-1.152-.012-1.512-.036l-1.872-.036-1.944.036c-.36.024-.864.036-1.512.036-.072 0-.108-.072-.108-.216 0-.144.036-.216.108-.216.648 0 1.116-.06 1.404-.18a.978.978 0 00.612-.684c.12-.36.18-.9.18-1.62V47.02c0-.72-.06-1.248-.18-1.584-.096-.36-.3-.6-.612-.72-.288-.12-.744-.18-1.368-.18-.072 0-.108-.072-.108-.216 0-.144.036-.216.108-.216.624 0 1.116.012 1.476.036l1.944.036 1.908-.036c.36-.024.852-.036 1.476-.036.048 0 .072.072.072.216 0 .144-.024.216-.072.216-.648 0-1.128.072-1.44.216-.288.144-.492.396-.612.756-.096.336-.144.864-.144 1.584v7.02l7.236-7.236c0-.672-.06-1.164-.18-1.476a.978.978 0 00-.612-.684c-.288-.12-.744-.18-1.368-.18-.072 0-.108-.072-.108-.216 0-.144.036-.216.108-.216.624 0 1.116.012 1.476.036l1.944.036 1.908-.036c.36-.024.852-.036 1.476-.036.048 0 .072.072.072.216 0 .144-.024.216-.072.216-.648 0-1.128.072-1.44.216-.288.144-.492.396-.612.756-.096.336-.144.864-.144 1.584v7.992c0 .72.048 1.26.144 1.62.12.336.324.564.612.684.312.12.792.18 1.44.18zm14.489-1.692c.072 0 .132.048.18.144.072.072.084.144.036.216-.84.768-1.704 1.332-2.592 1.692a7.68 7.68 0 01-2.808.504c-1.44 0-2.688-.312-3.744-.936a6.568 6.568 0 01-2.376-2.556 7.54 7.54 0 01-.792-3.42c0-1.416.336-2.712 1.008-3.888a7.432 7.432 0 012.844-2.808c1.224-.696 2.568-1.044 4.032-1.044 1.344 0 2.388.324 3.132.972.744.624 1.116 1.488 1.116 2.592 0 .6-.132.9-.396.9h-1.728l-7.092.072c-.096.48-.144 1.068-.144 1.764 0 2.064.492 3.732 1.476 5.004 1.008 1.272 2.388 1.908 4.14 1.908 1.392 0 2.616-.372 3.672-1.116h.036zM111.685 44.5c-.888 0-1.644.288-2.268.864-.624.552-1.068 1.344-1.332 2.376l6.192-.144c-.024-.96-.264-1.716-.72-2.268-.456-.552-1.08-.828-1.872-.828zm24.593 13.068c.048 0 .072.072.072.216 0 .144-.024.216-.072.216-.648 0-1.152-.012-1.512-.036l-1.872-.036-1.98.036c-.36.024-.852.036-1.476.036-.072 0-.108-.072-.108-.216 0-.144.036-.216.108-.216.648 0 1.116-.06 1.404-.18a.978.978 0 00.612-.684c.12-.36.18-.9.18-1.62v-3.672h-7.236v3.672c0 .72.048 1.26.144 1.62.12.336.324.564.612.684.312.12.792.18 1.44.18.048 0 .072.072.072.216 0 .144-.024.216-.072.216-.648 0-1.152-.012-1.512-.036l-1.872-.036-1.944.036c-.36.024-.864.036-1.512.036-.072 0-.108-.072-.108-.216 0-.144.036-.216.108-.216.648 0 1.116-.06 1.404-.18a.978.978 0 00.612-.684c.12-.36.18-.9.18-1.62V47.02c0-.72-.06-1.248-.18-1.584-.096-.36-.3-.6-.612-.72-.288-.12-.744-.18-1.368-.18-.072 0-.108-.072-.108-.216 0-.144.036-.216.108-.216.624 0 1.116.012 1.476.036l1.944.036 1.908-.036c.36-.024.852-.036 1.476-.036.048 0 .072.072.072.216 0 .144-.024.216-.072.216-.648 0-1.128.072-1.44.216-.288.144-.492.396-.612.756-.096.336-.144.864-.144 1.584v3.6h7.236V47.02c0-.72-.06-1.248-.18-1.584-.096-.36-.3-.6-.612-.72-.288-.12-.744-.18-1.368-.18-.072 0-.108-.072-.108-.216 0-.144.036-.216.108-.216.624 0 1.116.012 1.476.036l1.944.036 1.908-.036c.36-.024.852-.036 1.476-.036.048 0 .072.072.072.216 0 .144-.024.216-.072.216-.648 0-1.128.072-1.44.216-.288.144-.492.396-.612.756-.096.336-.144.864-.144 1.584v7.992c0 .72.048 1.26.144 1.62.12.336.324.564.612.684.312.12.792.18 1.44.18zm17.908 0c.048 0 .072.072.072.216 0 .144-.024.216-.072.216h-4.104a.726.726 0 01-.468-.144c-.096-.096-.312-.42-.648-.972l-1.368-2.34c-.6-1.008-1.092-1.74-1.476-2.196-.384-.48-.78-.804-1.188-.972-.384-.192-.888-.288-1.512-.288h-.396v3.996c0 .72.048 1.26.144 1.62.12.336.324.564.612.684.312.12.78.18 1.404.18.048 0 .072.072.072.216 0 .144-.024.216-.072.216-.624 0-1.116-.012-1.476-.036l-1.872-.036-1.98.036c-.36.024-.852.036-1.476.036-.072 0-.108-.072-.108-.216 0-.144.036-.216.108-.216.648 0 1.116-.06 1.404-.18.288-.12.48-.348.576-.684.12-.336.18-.876.18-1.62V47.02c0-.72-.048-1.248-.144-1.584-.096-.36-.3-.6-.612-.72-.288-.12-.744-.18-1.368-.18-.072 0-.108-.072-.108-.216 0-.144.036-.216.108-.216.6 0 1.08.012 1.44.036l1.98.036 2.16-.036a26.9 26.9 0 011.584-.036c.072 0 .108.072.108.216 0 .144-.036.216-.108.216-.744 0-1.296.072-1.656.216-.336.12-.576.36-.72.72-.12.336-.18.876-.18 1.62v3.42c.816-.072 1.5-.108 2.052-.108s1.14-.6 1.764-1.8c.648-1.272 1.176-2.232 1.584-2.88.408-.648.828-1.128 1.26-1.44a2.34 2.34 0 011.476-.504c.576 0 1.02.132 1.332.396.312.264.468.6.468 1.008 0 .432-.144.792-.432 1.08-.288.288-.672.432-1.152.432-.288 0-.6-.096-.936-.288-.288-.144-.54-.216-.756-.216-.552 0-1.296.876-2.232 2.628-.408.768-.78 1.32-1.116 1.656.792.096 1.416.36 1.872.792.456.432 1.092 1.284 1.908 2.556l.612.972c.432.744.78 1.284 1.044 1.62.264.336.576.612.936.828.384.192.876.3 1.476.324zm7.749.9c-1.416 0-2.664-.336-3.744-1.008a7.192 7.192 0 01-2.52-2.772 8.558 8.558 0 01-.864-3.816c0-1.56.384-2.88 1.152-3.96a6.951 6.951 0 012.952-2.448c1.2-.552 2.424-.828 3.672-.828 1.416 0 2.664.348 3.744 1.044a6.922 6.922 0 012.484 2.772 7.807 7.807 0 01.864 3.6c0 1.464-.36 2.76-1.08 3.888a7.215 7.215 0 01-2.808 2.628c-1.176.6-2.46.9-3.852.9zm1.044-.684c1.2 0 2.124-.468 2.772-1.404.648-.936.972-2.34.972-4.212 0-1.56-.24-2.928-.72-4.104-.456-1.2-1.092-2.112-1.908-2.736-.816-.648-1.728-.972-2.736-.972-1.176 0-2.088.456-2.736 1.368-.624.888-.936 2.208-.936 3.96 0 1.512.228 2.892.684 4.14.456 1.224 1.08 2.196 1.872 2.916.816.696 1.728 1.044 2.736 1.044z" fill="#DECBA4"/><circle cx="27" cy="44" r="2.5" fill="#fff" stroke="#fff"/></svg>