<svg width="32" height="32" viewBox="0 0 32 32" fill="none" xmlns="http://www.w3.org/2000/svg">
<rect width="32" height="32" fill="#2D2D33"/>
<path d="M9.686 18.252C8.384 18.252 7.222 17.951 6.2 17.349C5.192 16.733 4.408 15.907 3.848 14.871C3.302 13.821 3.029 12.68 3.029 11.448C3.029 10.006 3.393 8.774 4.121 7.752C4.849 6.716 5.78 5.939 6.914 5.421C8.062 4.903 9.231 4.644 10.421 4.644C11.751 4.644 12.92 4.959 13.928 5.589C14.936 6.205 15.706 7.024 16.238 8.046C16.784 9.068 17.057 10.153 17.057 11.301C17.057 12.575 16.721 13.744 16.049 14.808C15.377 15.872 14.474 16.712 13.34 17.328C12.22 17.944 11.002 18.252 9.686 18.252ZM10.421 17.79C11.317 17.79 12.122 17.559 12.836 17.097C13.55 16.635 14.11 15.963 14.516 15.081C14.936 14.185 15.146 13.121 15.146 11.889C15.146 10.587 14.915 9.425 14.453 8.403C14.005 7.381 13.354 6.583 12.5 6.009C11.66 5.435 10.68 5.148 9.56 5.148C8.104 5.148 6.97 5.645 6.158 6.639C5.346 7.619 4.94 8.977 4.94 10.713C4.94 12.043 5.171 13.247 5.633 14.325C6.095 15.403 6.739 16.25 7.565 16.866C8.405 17.482 9.357 17.79 10.421 17.79Z" fill="#DECBA4"/>
<path d="M21.686 27.252C20.384 27.252 19.222 26.951 18.2 26.349C17.192 25.733 16.408 24.907 15.848 23.871C15.302 22.821 15.029 21.68 15.029 20.448C15.029 19.006 15.393 17.774 16.121 16.752C16.849 15.716 17.78 14.939 18.914 14.421C20.062 13.903 21.231 13.644 22.421 13.644C23.751 13.644 24.92 13.959 25.928 14.589C26.936 15.205 27.706 16.024 28.238 17.046C28.784 18.068 29.057 19.153 29.057 20.301C29.057 21.575 28.721 22.744 28.049 23.808C27.377 24.872 26.474 25.712 25.34 26.328C24.22 26.944 23.002 27.252 21.686 27.252ZM22.421 26.79C23.317 26.79 24.122 26.559 24.836 26.097C25.55 25.635 26.11 24.963 26.516 24.081C26.936 23.185 27.146 22.121 27.146 20.889C27.146 19.587 26.915 18.425 26.453 17.403C26.005 16.381 25.354 15.583 24.5 15.009C23.66 14.435 22.68 14.148 21.56 14.148C20.104 14.148 18.97 14.645 18.158 15.639C17.346 16.619 16.94 17.977 16.94 19.713C16.94 21.043 17.171 22.247 17.633 23.325C18.095 24.403 18.739 25.25 19.565 25.866C20.405 26.482 21.357 26.79 22.421 26.79Z" fill="#DECBA4"/>
</svg>
