<svg width="7" height="13" viewBox="0 0 7 13" fill="none" xmlns="http://www.w3.org/2000/svg">
<path d="M0.475813 6.91665H1.87775V12.6882C1.87775 12.8021 1.97008 12.8945 2.08403 12.8945H4.46105C4.575 12.8945 4.66734 12.8021 4.66734 12.6882V6.94384H6.27898C6.38377 6.94384 6.47193 6.86521 6.4839 6.76112L6.72867 4.63633C6.73539 4.57787 6.71687 4.51933 6.67776 4.47547C6.63861 4.43158 6.58258 4.40645 6.52379 4.40645H4.66742V3.07453C4.66742 2.67302 4.8836 2.46942 5.31003 2.46942C5.3708 2.46942 6.52379 2.46942 6.52379 2.46942C6.63774 2.46942 6.73007 2.37705 6.73007 2.26314V0.312789C6.73007 0.198839 6.63774 0.106507 6.52379 0.106507H4.85105C4.83925 0.105929 4.81305 0.10498 4.77444 0.10498C4.4842 0.10498 3.47536 0.161955 2.67845 0.895081C1.79548 1.7075 1.91822 2.68024 1.94755 2.8489V4.40641H0.475813C0.361863 4.40641 0.269531 4.49874 0.269531 4.61269V6.71033C0.269531 6.82428 0.361863 6.91665 0.475813 6.91665Z" fill="white"/>
</svg>
