<svg width="21" height="19" viewBox="0 0 21 19" fill="none" xmlns="http://www.w3.org/2000/svg">
<path d="M10.4423 18.1984L10.3445 18.113L3.7252 12.3325L10.4423 18.1984ZM10.4423 18.1984L10.5409 18.1138M10.4423 18.1984L10.5409 18.1138M10.5409 18.1138L17.2739 12.3336L17.2747 12.3328M10.5409 18.1138L17.2747 12.3328M17.2747 12.3328C18.6232 11.1566 19.5506 9.66953 19.9524 8.03088C20.2278 6.90901 20.1431 6.20869 20.1174 6.05001M17.2747 12.3328L20.1174 6.05001M20.1174 6.05001C19.8318 3.049 17.617 0.850352 14.8266 0.850352C13.0537 0.850352 11.4236 1.7285 10.449 3.15165C9.48803 1.71261 7.92066 0.85 6.17336 0.85C3.38341 0.85 1.1682 3.04854 0.882871 6.04947C0.856678 6.20891 0.772244 6.90924 1.04753 8.03089C1.44928 9.66913 2.37666 11.1566 3.72512 12.3324L20.1174 6.05001Z" fill="white" stroke="white" stroke-width="0.3"/>
</svg>
