<svg width="21" height="19" viewBox="0 0 21 19" fill="none" xmlns="http://www.w3.org/2000/svg">
<path d="M10.3445 18.113L10.4423 18.1984L10.5409 18.1138L17.2739 12.3336L17.2747 12.3328C18.6232 11.1566 19.5506 9.66953 19.9524 8.03088C20.2278 6.90895 20.1431 6.20862 20.1174 6.04999C19.8318 3.04899 17.617 0.850352 14.8266 0.850352C13.0537 0.850352 11.4236 1.7285 10.449 3.15165C9.48803 1.71261 7.92066 0.85 6.17336 0.85C3.38341 0.85 1.1682 3.04854 0.882871 6.04947C0.856678 6.20891 0.772243 6.90925 1.04754 8.03091C1.44929 9.66917 2.3767 11.1566 3.7252 12.3325L10.3445 18.113ZM18.9496 7.79835L18.9496 7.7984C18.5979 9.23314 17.7822 10.5432 16.5891 11.5834C16.589 11.5835 16.5888 11.5837 16.5887 11.5838L10.4484 16.8557L4.41356 11.5853L4.41347 11.5852C3.21791 10.5428 2.40239 9.23295 2.05034 7.79802L2.05034 7.798C1.9237 7.28213 1.88697 6.88083 1.88147 6.61043C1.87665 6.37309 1.89555 6.23847 1.90073 6.20355L1.9009 6.20358L1.90638 6.16806L1.90666 6.16811L1.9075 6.15897C2.13915 3.64892 3.9427 1.85328 6.17336 1.85328C7.82345 1.85328 9.279 2.82795 9.97179 4.40608C9.9718 4.4061 9.9718 4.40612 9.97181 4.40614L10.3083 5.1737L10.4457 5.48705L10.5831 5.1737L10.9196 4.40611C10.9196 4.4061 10.9196 4.40609 10.9196 4.40608C11.5999 2.85573 13.1333 1.85363 14.8269 1.85363C17.0566 1.85363 18.8611 3.64861 19.0976 6.19282L19.0975 6.19283L19.0982 6.19826L19.0983 6.19904C19.1002 6.21069 19.1236 6.35091 19.1184 6.61042C19.113 6.8811 19.0762 7.28249 18.9496 7.79835Z" fill="white" stroke="white" stroke-width="0.3"/>
</svg>
