<svg width="171" height="65" viewBox="0 0 171 65" fill="none" xmlns="http://www.w3.org/2000/svg">
<path d="M13.176 29.432C10.944 29.432 8.952 28.916 7.2 27.884C5.472 26.828 4.128 25.412 3.168 23.636C2.232 21.836 1.764 19.88 1.764 17.768C1.764 15.296 2.388 13.184 3.636 11.432C4.884 9.656 6.48 8.324 8.424 7.436C10.392 6.548 12.396 6.104 14.436 6.104C16.716 6.104 18.72 6.644 20.448 7.724C22.176 8.78 23.496 10.184 24.408 11.936C25.344 13.688 25.812 15.548 25.812 17.516C25.812 19.7 25.236 21.704 24.084 23.528C22.932 25.352 21.384 26.792 19.44 27.848C17.52 28.904 15.432 29.432 13.176 29.432ZM14.436 28.64C15.972 28.64 17.352 28.244 18.576 27.452C19.8 26.66 20.76 25.508 21.456 23.996C22.176 22.46 22.536 20.636 22.536 18.524C22.536 16.292 22.14 14.3 21.348 12.548C20.58 10.796 19.464 9.428 18 8.444C16.56 7.46 14.88 6.968 12.96 6.968C10.464 6.968 8.52 7.82 7.128 9.524C5.736 11.204 5.04 13.532 5.04 16.508C5.04 18.788 5.436 20.852 6.228 22.7C7.02 24.548 8.124 26 9.54 27.056C10.98 28.112 12.612 28.64 14.436 28.64ZM28.7348 29.288C27.6068 29.288 27.0428 28.844 27.0428 27.956C27.0428 27.524 27.1628 27.2 27.4028 26.984C27.6428 26.744 27.9428 26.624 28.3028 26.624C28.4468 26.624 28.6268 26.648 28.8428 26.696C29.0828 26.744 29.2628 26.768 29.3828 26.768C30.1508 26.768 30.7988 26.276 31.3268 25.292C31.8788 24.308 32.2868 23.096 32.5508 21.656C32.8388 20.192 32.9828 18.8 32.9828 17.48C32.9828 16.688 32.8028 16.172 32.4428 15.932C32.1068 15.692 31.4228 15.548 30.3908 15.5C30.3188 15.5 30.2828 15.428 30.2828 15.284C30.2828 15.14 30.3188 15.068 30.3908 15.068L36.1868 15.104H42.4508C42.5228 15.104 42.5588 15.176 42.5588 15.32C42.5588 15.464 42.5228 15.536 42.4508 15.536C41.8028 15.56 41.3348 15.632 41.0468 15.752C40.7588 15.872 40.5548 16.1 40.4348 16.436C40.3388 16.772 40.2908 17.324 40.2908 18.092V26.084C40.2908 26.852 40.3388 27.404 40.4348 27.74C40.5548 28.052 40.7468 28.268 41.0108 28.388C41.2988 28.484 41.7788 28.544 42.4508 28.568C42.5228 28.568 42.5588 28.64 42.5588 28.784C42.5588 28.928 42.5228 29 42.4508 29C41.8268 29 41.3468 28.988 41.0108 28.964L39.1028 28.928L37.0868 28.964C36.7268 28.988 36.2468 29 35.6468 29C35.5748 29 35.5388 28.928 35.5388 28.784C35.5388 28.64 35.5748 28.568 35.6468 28.568C36.3188 28.544 36.7988 28.484 37.0868 28.388C37.3748 28.268 37.5668 28.052 37.6628 27.74C37.7828 27.404 37.8428 26.852 37.8428 26.084V18.02C37.8428 17.204 37.8188 16.664 37.7708 16.4C37.7228 16.136 37.6028 15.968 37.4108 15.896C37.2428 15.824 36.8828 15.788 36.3308 15.788H36.0068C35.3828 15.788 34.9388 15.848 34.6748 15.968C34.4348 16.064 34.2668 16.256 34.1708 16.544C34.0748 16.808 33.9908 17.288 33.9188 17.984L33.8468 18.704C33.6308 20.72 33.3668 22.448 33.0548 23.888C32.7668 25.304 32.2748 26.564 31.5788 27.668C30.8828 28.748 29.9348 29.288 28.7348 29.288ZM52.8457 20.828C56.1818 20.828 57.8498 22.076 57.8498 24.572C57.8498 25.892 57.3698 26.972 56.4098 27.812C55.4498 28.652 54.2138 29.072 52.7018 29.072C52.3418 29.072 51.6578 29.048 50.6498 29C49.4978 28.952 48.6818 28.928 48.2018 28.928L46.2578 28.964C45.8978 28.988 45.3938 29 44.7458 29C44.6738 29 44.6378 28.928 44.6378 28.784C44.6378 28.64 44.6738 28.568 44.7458 28.568C45.3938 28.568 45.8618 28.508 46.1498 28.388C46.4618 28.268 46.6658 28.04 46.7618 27.704C46.8818 27.344 46.9418 26.804 46.9418 26.084V18.02C46.9418 17.3 46.8818 16.772 46.7618 16.436C46.6658 16.076 46.4618 15.836 46.1498 15.716C45.8618 15.596 45.4058 15.536 44.7817 15.536C44.7098 15.536 44.6738 15.464 44.6738 15.32C44.6738 15.176 44.7098 15.104 44.7817 15.104C45.4058 15.104 45.8978 15.116 46.2578 15.14L48.2018 15.176L50.3258 15.14C50.7338 15.116 51.2858 15.104 51.9818 15.104C52.0538 15.104 52.0898 15.176 52.0898 15.32C52.0898 15.464 52.0538 15.536 51.9818 15.536C51.2138 15.536 50.6498 15.608 50.2898 15.752C49.9298 15.896 49.6898 16.148 49.5698 16.508C49.4498 16.844 49.3898 17.372 49.3898 18.092V21.26C50.3498 20.972 51.5018 20.828 52.8457 20.828ZM51.9818 28.532C54.0938 28.532 55.1498 27.476 55.1498 25.364C55.1498 24.164 54.8618 23.228 54.2858 22.556C53.7098 21.86 52.8098 21.512 51.5858 21.512C50.7698 21.512 50.0378 21.62 49.3898 21.836V26.084C49.3898 26.972 49.5698 27.608 49.9298 27.992C50.2898 28.352 50.9738 28.532 51.9818 28.532ZM70.6646 15.104C70.8086 15.104 70.8926 15.128 70.9166 15.176C70.9406 15.2 70.9526 15.284 70.9526 15.428C70.9526 15.908 70.9406 16.34 70.9166 16.724C70.8926 17.084 70.8686 17.396 70.8446 17.66L70.7726 19.784C70.7726 19.832 70.7006 19.856 70.5566 19.856C70.4366 19.856 70.3646 19.832 70.3406 19.784C70.1246 18.296 69.7166 17.24 69.1166 16.616C68.5166 15.968 67.6766 15.644 66.5966 15.644C65.7086 15.644 65.1206 15.812 64.8326 16.148C64.5686 16.484 64.4366 17.132 64.4366 18.092V26.084C64.4366 26.804 64.4846 27.344 64.5806 27.704C64.7006 28.04 64.9046 28.268 65.1926 28.388C65.5046 28.508 65.9846 28.568 66.6326 28.568C66.6806 28.568 66.7046 28.64 66.7046 28.784C66.7046 28.928 66.6806 29 66.6326 29C65.9846 29 65.4806 28.988 65.1206 28.964L63.2486 28.928L61.3046 28.964C60.9446 28.988 60.4406 29 59.7926 29C59.7206 29 59.6846 28.928 59.6846 28.784C59.6846 28.64 59.7206 28.568 59.7926 28.568C60.4406 28.568 60.9086 28.508 61.1966 28.388C61.5086 28.268 61.7126 28.04 61.8086 27.704C61.9286 27.344 61.9886 26.804 61.9886 26.084V18.02C61.9886 17.3 61.9286 16.772 61.8086 16.436C61.7126 16.076 61.5086 15.836 61.1966 15.716C60.9086 15.596 60.4526 15.536 59.8286 15.536C59.7566 15.536 59.7206 15.464 59.7206 15.32C59.7206 15.176 59.7566 15.104 59.8286 15.104H70.6646ZM87.0463 27.056C87.1423 27.056 87.2023 27.116 87.2263 27.236C87.2743 27.332 87.2503 27.404 87.1543 27.452L83.4463 29.216C83.3503 29.264 83.2423 29.288 83.1223 29.288C82.8103 29.288 82.5103 29.096 82.2223 28.712C81.9583 28.304 81.7783 27.752 81.6823 27.056L79.6303 28.172C78.2623 28.892 77.1223 29.252 76.2103 29.252C75.4663 29.252 74.8783 29.06 74.4463 28.676C74.0383 28.268 73.8343 27.74 73.8343 27.092C73.8343 26.396 74.0863 25.856 74.5903 25.472C75.1183 25.088 76.0783 24.656 77.4703 24.176L81.6103 22.736V19.82C81.6103 18.284 81.4183 17.192 81.0343 16.544C80.6743 15.872 80.1463 15.536 79.4503 15.536C78.7063 15.536 78.1183 15.812 77.6863 16.364C77.2783 16.892 77.0263 17.588 76.9303 18.452C76.8343 19.508 76.3063 20.036 75.3463 20.036C74.9143 20.036 74.5783 19.928 74.3383 19.712C74.0983 19.496 73.9783 19.196 73.9783 18.812C73.9783 18.236 74.3503 17.636 75.0943 17.012C75.8623 16.364 76.7743 15.836 77.8303 15.428C78.8863 14.996 79.8343 14.78 80.6743 14.78C81.6823 14.78 82.4983 15.116 83.1223 15.788C83.7463 16.436 84.0583 17.42 84.0583 18.74V25.112C84.0583 25.904 84.1663 26.492 84.3823 26.876C84.6223 27.26 84.9823 27.452 85.4623 27.452C85.8943 27.452 86.4103 27.32 87.0103 27.056H87.0463ZM81.6103 26.516V26.156V23.24L78.4423 24.428C77.8663 24.644 77.4463 24.896 77.1823 25.184C76.9423 25.448 76.8223 25.784 76.8223 26.192C76.8223 26.696 76.9663 27.092 77.2543 27.38C77.5423 27.668 77.9143 27.812 78.3703 27.812C78.8983 27.812 79.4263 27.668 79.9543 27.38L81.6103 26.516Z" fill="#DECBA4"/>
<path d="M106.992 26.234C106.452 26.234 105.936 25.982 105.444 25.478V29.492C105.444 29.852 105.48 30.116 105.552 30.284C105.636 30.452 105.786 30.566 106.002 30.626C106.23 30.698 106.578 30.734 107.046 30.734C107.07 30.734 107.082 30.77 107.082 30.842C107.082 30.914 107.07 30.95 107.046 30.95C106.65 30.95 106.338 30.944 106.11 30.932L104.85 30.914L103.482 30.932C103.242 30.944 102.918 30.95 102.51 30.95C102.474 30.95 102.456 30.914 102.456 30.842C102.456 30.77 102.474 30.734 102.51 30.734C103.002 30.734 103.368 30.698 103.608 30.626C103.848 30.566 104.01 30.452 104.094 30.284C104.178 30.116 104.22 29.852 104.22 29.492V25.082C103.452 25.85 102.702 26.234 101.97 26.234C101.538 26.234 101.142 26.096 100.782 25.82C100.422 25.532 100.14 25.124 99.936 24.596C99.732 24.056 99.63 23.432 99.63 22.724C99.63 21.872 99.786 21.152 100.098 20.564C100.422 19.964 100.818 19.526 101.286 19.25C101.766 18.962 102.228 18.818 102.672 18.818C103.212 18.818 103.728 19.07 104.22 19.574V15.29C104.22 14.858 104.178 14.552 104.094 14.372C104.022 14.18 103.878 14.084 103.662 14.084C103.458 14.084 103.2 14.162 102.888 14.318H102.852C102.816 14.318 102.786 14.288 102.762 14.228C102.738 14.168 102.744 14.132 102.78 14.12L105.156 12.968C105.18 12.956 105.21 12.95 105.246 12.95C105.294 12.95 105.336 12.968 105.372 13.004C105.42 13.04 105.444 13.082 105.444 13.13V19.97C106.2 19.202 106.944 18.818 107.676 18.818C108.108 18.818 108.504 18.962 108.864 19.25C109.224 19.526 109.506 19.934 109.71 20.474C109.926 21.002 110.034 21.62 110.034 22.328C110.034 23.18 109.872 23.9 109.548 24.488C109.224 25.076 108.828 25.514 108.36 25.802C107.892 26.09 107.436 26.234 106.992 26.234ZM102.6 25.64C103.14 25.64 103.68 25.346 104.22 24.758V20.366C103.968 20.006 103.692 19.724 103.392 19.52C103.104 19.304 102.816 19.196 102.528 19.196C102.06 19.196 101.694 19.466 101.43 20.006C101.166 20.546 101.034 21.284 101.034 22.22C101.034 23.3 101.178 24.14 101.466 24.74C101.754 25.34 102.132 25.64 102.6 25.64ZM107.046 19.412C106.506 19.412 105.972 19.7 105.444 20.276V24.704C105.696 25.064 105.966 25.346 106.254 25.55C106.554 25.754 106.848 25.856 107.136 25.856C107.604 25.856 107.97 25.586 108.234 25.046C108.498 24.506 108.63 23.768 108.63 22.832C108.63 21.764 108.48 20.93 108.18 20.33C107.892 19.718 107.514 19.412 107.046 19.412ZM114.848 26.234C114.14 26.234 113.516 26.066 112.976 25.73C112.436 25.382 112.016 24.92 111.716 24.344C111.428 23.756 111.284 23.12 111.284 22.436C111.284 21.656 111.476 20.996 111.86 20.456C112.244 19.904 112.736 19.496 113.336 19.232C113.936 18.956 114.548 18.818 115.172 18.818C115.88 18.818 116.504 18.992 117.044 19.34C117.584 19.688 117.998 20.15 118.286 20.726C118.574 21.29 118.718 21.89 118.718 22.526C118.718 23.258 118.538 23.906 118.178 24.47C117.83 25.034 117.362 25.472 116.774 25.784C116.186 26.084 115.544 26.234 114.848 26.234ZM115.37 25.892C115.97 25.892 116.432 25.658 116.756 25.19C117.08 24.722 117.242 24.02 117.242 23.084C117.242 22.304 117.122 21.62 116.882 21.032C116.654 20.432 116.336 19.976 115.928 19.664C115.52 19.34 115.064 19.178 114.56 19.178C113.972 19.178 113.516 19.406 113.192 19.862C112.88 20.306 112.724 20.966 112.724 21.842C112.724 22.598 112.838 23.288 113.066 23.912C113.294 24.524 113.606 25.01 114.002 25.37C114.41 25.718 114.866 25.892 115.37 25.892ZM121.462 26C121.438 26 121.426 25.964 121.426 25.892C121.426 25.82 121.438 25.784 121.462 25.784C121.786 25.784 122.026 25.754 122.182 25.694C122.338 25.634 122.44 25.52 122.488 25.352C122.548 25.172 122.578 24.902 122.578 24.542V20.546C122.578 20.078 122.53 19.766 122.434 19.61C122.338 19.442 122.134 19.358 121.822 19.358C120.862 19.358 120.316 20.036 120.184 21.392C120.172 21.416 120.13 21.428 120.058 21.428C119.998 21.428 119.968 21.416 119.968 21.392L119.932 20.222C119.908 19.742 119.896 19.4 119.896 19.196C119.896 19.124 119.902 19.082 119.914 19.07C119.926 19.046 119.968 19.034 120.04 19.034C120.28 19.034 120.496 19.04 120.688 19.052L123.136 19.07L125.62 19.052C125.824 19.04 126.058 19.034 126.322 19.034C126.394 19.034 126.436 19.046 126.448 19.07C126.46 19.082 126.466 19.124 126.466 19.196C126.466 19.4 126.454 19.742 126.43 20.222L126.394 21.392C126.394 21.416 126.358 21.428 126.286 21.428C126.214 21.428 126.178 21.416 126.178 21.392C126.046 20.036 125.5 19.358 124.54 19.358C124.228 19.358 124.024 19.442 123.928 19.61C123.844 19.766 123.802 20.078 123.802 20.546V24.542C123.802 24.902 123.826 25.172 123.874 25.352C123.934 25.52 124.036 25.634 124.18 25.694C124.336 25.754 124.57 25.784 124.882 25.784C124.918 25.784 124.936 25.82 124.936 25.892C124.936 25.964 124.918 26 124.882 26C124.57 26 124.324 25.994 124.144 25.982L123.208 25.964L122.236 25.982C122.056 25.994 121.798 26 121.462 26ZM131.214 26.234C130.506 26.234 129.882 26.066 129.342 25.73C128.802 25.382 128.382 24.92 128.082 24.344C127.794 23.756 127.65 23.12 127.65 22.436C127.65 21.656 127.842 20.996 128.226 20.456C128.61 19.904 129.102 19.496 129.702 19.232C130.302 18.956 130.914 18.818 131.538 18.818C132.246 18.818 132.87 18.992 133.41 19.34C133.95 19.688 134.364 20.15 134.652 20.726C134.94 21.29 135.084 21.89 135.084 22.526C135.084 23.258 134.904 23.906 134.544 24.47C134.196 25.034 133.728 25.472 133.14 25.784C132.552 26.084 131.91 26.234 131.214 26.234ZM131.736 25.892C132.336 25.892 132.798 25.658 133.122 25.19C133.446 24.722 133.608 24.02 133.608 23.084C133.608 22.304 133.488 21.62 133.248 21.032C133.02 20.432 132.702 19.976 132.294 19.664C131.886 19.34 131.43 19.178 130.926 19.178C130.338 19.178 129.882 19.406 129.558 19.862C129.246 20.306 129.09 20.966 129.09 21.842C129.09 22.598 129.204 23.288 129.432 23.912C129.66 24.524 129.972 25.01 130.368 25.37C130.776 25.718 131.232 25.892 131.736 25.892ZM141.715 19.052C141.787 19.052 141.829 19.064 141.841 19.088C141.853 19.1 141.859 19.142 141.859 19.214C141.859 19.454 141.853 19.67 141.841 19.862C141.829 20.042 141.817 20.198 141.805 20.33L141.769 21.392C141.769 21.416 141.733 21.428 141.661 21.428C141.601 21.428 141.565 21.416 141.553 21.392C141.445 20.648 141.241 20.12 140.941 19.808C140.641 19.484 140.221 19.322 139.681 19.322C139.237 19.322 138.943 19.406 138.799 19.574C138.667 19.742 138.601 20.066 138.601 20.546V24.542C138.601 24.902 138.625 25.172 138.673 25.352C138.733 25.52 138.835 25.634 138.979 25.694C139.135 25.754 139.375 25.784 139.699 25.784C139.723 25.784 139.735 25.82 139.735 25.892C139.735 25.964 139.723 26 139.699 26C139.375 26 139.123 25.994 138.943 25.982L138.007 25.964L137.035 25.982C136.855 25.994 136.603 26 136.279 26C136.243 26 136.225 25.964 136.225 25.892C136.225 25.82 136.243 25.784 136.279 25.784C136.603 25.784 136.837 25.754 136.981 25.694C137.137 25.634 137.239 25.52 137.287 25.352C137.347 25.172 137.377 24.902 137.377 24.542V20.51C137.377 20.15 137.347 19.886 137.287 19.718C137.239 19.538 137.137 19.418 136.981 19.358C136.837 19.298 136.609 19.268 136.297 19.268C136.261 19.268 136.243 19.232 136.243 19.16C136.243 19.088 136.261 19.052 136.297 19.052H141.715ZM148.07 18.818C148.574 18.818 149.036 18.95 149.456 19.214C149.888 19.478 150.23 19.862 150.482 20.366C150.746 20.87 150.878 21.458 150.878 22.13C150.878 23.054 150.674 23.828 150.266 24.452C149.858 25.064 149.354 25.514 148.754 25.802C148.154 26.09 147.554 26.234 146.954 26.234C146.606 26.234 146.294 26.204 146.018 26.144C145.754 26.096 145.472 26.006 145.172 25.874V29.492C145.172 29.852 145.214 30.116 145.298 30.284C145.394 30.452 145.556 30.566 145.784 30.626C146.024 30.698 146.396 30.734 146.9 30.734C146.936 30.734 146.954 30.77 146.954 30.842C146.954 30.914 146.936 30.95 146.9 30.95C146.48 30.95 146.15 30.944 145.91 30.932L144.56 30.914L143.48 30.932C143.3 30.944 143.048 30.95 142.724 30.95C142.7 30.95 142.688 30.914 142.688 30.842C142.688 30.77 142.7 30.734 142.724 30.734C143.072 30.734 143.33 30.698 143.498 30.626C143.678 30.566 143.798 30.452 143.858 30.284C143.918 30.116 143.948 29.852 143.948 29.492V20.51C143.948 20.006 143.852 19.676 143.66 19.52C143.468 19.352 143.096 19.268 142.544 19.268C142.508 19.268 142.49 19.232 142.49 19.16C142.49 19.088 142.508 19.052 142.544 19.052H144.812C144.956 19.052 145.052 19.082 145.1 19.142C145.148 19.202 145.172 19.322 145.172 19.502V20.24C145.676 19.748 146.162 19.388 146.63 19.16C147.098 18.932 147.578 18.818 148.07 18.818ZM147.44 25.838C148.064 25.838 148.562 25.568 148.934 25.028C149.318 24.476 149.51 23.696 149.51 22.688C149.51 21.716 149.288 20.96 148.844 20.42C148.412 19.88 147.86 19.61 147.188 19.61C146.792 19.61 146.432 19.694 146.108 19.862C145.796 20.03 145.484 20.276 145.172 20.6V24.758C145.472 25.106 145.796 25.376 146.144 25.568C146.492 25.748 146.924 25.838 147.44 25.838ZM158.994 25.028C159.042 25.028 159.072 25.058 159.084 25.118C159.108 25.166 159.096 25.202 159.048 25.226L157.194 26.108C157.146 26.132 157.092 26.144 157.032 26.144C156.876 26.144 156.726 26.048 156.582 25.856C156.45 25.652 156.36 25.376 156.312 25.028L155.286 25.586C154.602 25.946 154.032 26.126 153.576 26.126C153.204 26.126 152.91 26.03 152.694 25.838C152.49 25.634 152.388 25.37 152.388 25.046C152.388 24.698 152.514 24.428 152.766 24.236C153.03 24.044 153.51 23.828 154.206 23.588L156.276 22.868V21.41C156.276 20.642 156.18 20.096 155.988 19.772C155.808 19.436 155.544 19.268 155.196 19.268C154.824 19.268 154.53 19.406 154.314 19.682C154.11 19.946 153.984 20.294 153.936 20.726C153.888 21.254 153.624 21.518 153.144 21.518C152.928 21.518 152.76 21.464 152.64 21.356C152.52 21.248 152.46 21.098 152.46 20.906C152.46 20.618 152.646 20.318 153.018 20.006C153.402 19.682 153.858 19.418 154.386 19.214C154.914 18.998 155.388 18.89 155.808 18.89C156.312 18.89 156.72 19.058 157.032 19.394C157.344 19.718 157.5 20.21 157.5 20.87V24.056C157.5 24.452 157.554 24.746 157.662 24.938C157.782 25.13 157.962 25.226 158.202 25.226C158.418 25.226 158.676 25.16 158.976 25.028H158.994ZM156.276 24.758V24.578V23.12L154.692 23.714C154.404 23.822 154.194 23.948 154.062 24.092C153.942 24.224 153.882 24.392 153.882 24.596C153.882 24.848 153.954 25.046 154.098 25.19C154.242 25.334 154.428 25.406 154.656 25.406C154.92 25.406 155.184 25.334 155.448 25.19L156.276 24.758ZM167.056 26.234C166.516 26.234 166 25.982 165.508 25.478V29.492C165.508 29.852 165.544 30.116 165.616 30.284C165.7 30.452 165.85 30.566 166.066 30.626C166.294 30.698 166.642 30.734 167.11 30.734C167.134 30.734 167.146 30.77 167.146 30.842C167.146 30.914 167.134 30.95 167.11 30.95C166.714 30.95 166.402 30.944 166.174 30.932L164.914 30.914L163.546 30.932C163.306 30.944 162.982 30.95 162.574 30.95C162.538 30.95 162.52 30.914 162.52 30.842C162.52 30.77 162.538 30.734 162.574 30.734C163.066 30.734 163.432 30.698 163.672 30.626C163.912 30.566 164.074 30.452 164.158 30.284C164.242 30.116 164.284 29.852 164.284 29.492V25.082C163.516 25.85 162.766 26.234 162.034 26.234C161.602 26.234 161.206 26.096 160.846 25.82C160.486 25.532 160.204 25.124 160 24.596C159.796 24.056 159.694 23.432 159.694 22.724C159.694 21.872 159.85 21.152 160.162 20.564C160.486 19.964 160.882 19.526 161.35 19.25C161.83 18.962 162.292 18.818 162.736 18.818C163.276 18.818 163.792 19.07 164.284 19.574V15.29C164.284 14.858 164.242 14.552 164.158 14.372C164.086 14.18 163.942 14.084 163.726 14.084C163.522 14.084 163.264 14.162 162.952 14.318H162.916C162.88 14.318 162.85 14.288 162.826 14.228C162.802 14.168 162.808 14.132 162.844 14.12L165.22 12.968C165.244 12.956 165.274 12.95 165.31 12.95C165.358 12.95 165.4 12.968 165.436 13.004C165.484 13.04 165.508 13.082 165.508 13.13V19.97C166.264 19.202 167.008 18.818 167.74 18.818C168.172 18.818 168.568 18.962 168.928 19.25C169.288 19.526 169.57 19.934 169.774 20.474C169.99 21.002 170.098 21.62 170.098 22.328C170.098 23.18 169.936 23.9 169.612 24.488C169.288 25.076 168.892 25.514 168.424 25.802C167.956 26.09 167.5 26.234 167.056 26.234ZM162.664 25.64C163.204 25.64 163.744 25.346 164.284 24.758V20.366C164.032 20.006 163.756 19.724 163.456 19.52C163.168 19.304 162.88 19.196 162.592 19.196C162.124 19.196 161.758 19.466 161.494 20.006C161.23 20.546 161.098 21.284 161.098 22.22C161.098 23.3 161.242 24.14 161.53 24.74C161.818 25.34 162.196 25.64 162.664 25.64ZM167.11 19.412C166.57 19.412 166.036 19.7 165.508 20.276V24.704C165.76 25.064 166.03 25.346 166.318 25.55C166.618 25.754 166.912 25.856 167.2 25.856C167.668 25.856 168.034 25.586 168.298 25.046C168.562 24.506 168.694 23.768 168.694 22.832C168.694 21.764 168.544 20.93 168.244 20.33C167.956 19.718 167.578 19.412 167.11 19.412Z" fill="white"/>
<path d="M57.176 58.432C54.944 58.432 52.952 57.916 51.2 56.884C49.472 55.828 48.128 54.412 47.168 52.636C46.232 50.836 45.764 48.88 45.764 46.768C45.764 44.296 46.388 42.184 47.636 40.432C48.884 38.656 50.48 37.324 52.424 36.436C54.392 35.548 56.396 35.104 58.436 35.104C60.716 35.104 62.72 35.644 64.448 36.724C66.176 37.78 67.496 39.184 68.408 40.936C69.344 42.688 69.812 44.548 69.812 46.516C69.812 48.7 69.236 50.704 68.084 52.528C66.932 54.352 65.384 55.792 63.44 56.848C61.52 57.904 59.432 58.432 57.176 58.432ZM58.436 57.64C59.972 57.64 61.352 57.244 62.576 56.452C63.8 55.66 64.76 54.508 65.456 52.996C66.176 51.46 66.536 49.636 66.536 47.524C66.536 45.292 66.14 43.3 65.348 41.548C64.58 39.796 63.464 38.428 62 37.444C60.56 36.46 58.88 35.968 56.96 35.968C54.464 35.968 52.52 36.82 51.128 38.524C49.736 40.204 49.04 42.532 49.04 45.508C49.04 47.788 49.436 49.852 50.228 51.7C51.02 53.548 52.124 55 53.54 56.056C54.98 57.112 56.612 57.64 58.436 57.64ZM83.5865 44.104C83.7305 44.104 83.8145 44.128 83.8385 44.176C83.8625 44.2 83.8745 44.284 83.8745 44.428C83.8745 44.908 83.8625 45.34 83.8385 45.724C83.8145 46.084 83.7905 46.396 83.7665 46.66L83.6945 48.784C83.6945 48.832 83.6225 48.856 83.4785 48.856C83.3585 48.856 83.2865 48.832 83.2625 48.784C83.0465 47.296 82.6385 46.24 82.0385 45.616C81.4385 44.968 80.5985 44.644 79.5185 44.644C78.6305 44.644 78.0425 44.812 77.7545 45.148C77.4905 45.484 77.3585 46.132 77.3585 47.092V55.084C77.3585 55.804 77.4065 56.344 77.5025 56.704C77.6225 57.04 77.8265 57.268 78.1145 57.388C78.4265 57.508 78.9065 57.568 79.5545 57.568C79.6025 57.568 79.6265 57.64 79.6265 57.784C79.6265 57.928 79.6025 58 79.5545 58C78.9065 58 78.4025 57.988 78.0425 57.964L76.1705 57.928L74.2265 57.964C73.8665 57.988 73.3625 58 72.7145 58C72.6425 58 72.6065 57.928 72.6065 57.784C72.6065 57.64 72.6425 57.568 72.7145 57.568C73.3625 57.568 73.8305 57.508 74.1185 57.388C74.4305 57.268 74.6345 57.04 74.7305 56.704C74.8505 56.344 74.9105 55.804 74.9105 55.084V47.02C74.9105 46.3 74.8505 45.772 74.7305 45.436C74.6345 45.076 74.4305 44.836 74.1185 44.716C73.8305 44.596 73.3745 44.536 72.7505 44.536C72.6785 44.536 72.6425 44.464 72.6425 44.32C72.6425 44.176 72.6785 44.104 72.7505 44.104H83.5865ZM102.668 57.568C102.716 57.568 102.74 57.64 102.74 57.784C102.74 57.928 102.716 58 102.668 58C102.02 58 101.516 57.988 101.156 57.964L99.2842 57.928L97.3042 57.964C96.9442 57.988 96.4522 58 95.8282 58C95.7562 58 95.7202 57.928 95.7202 57.784C95.7202 57.64 95.7562 57.568 95.8282 57.568C96.4762 57.568 96.9442 57.508 97.2322 57.388C97.5442 57.268 97.7482 57.04 97.8442 56.704C97.9642 56.344 98.0242 55.804 98.0242 55.084V47.956L90.7882 55.192C90.7882 55.888 90.8362 56.404 90.9322 56.74C91.0522 57.052 91.2682 57.268 91.5802 57.388C91.8922 57.508 92.3602 57.568 92.9842 57.568C93.0322 57.568 93.0562 57.64 93.0562 57.784C93.0562 57.928 93.0322 58 92.9842 58C92.3362 58 91.8322 57.988 91.4722 57.964L89.6002 57.928L87.6562 57.964C87.2962 57.988 86.7922 58 86.1442 58C86.0722 58 86.0362 57.928 86.0362 57.784C86.0362 57.64 86.0722 57.568 86.1442 57.568C86.7922 57.568 87.2602 57.508 87.5482 57.388C87.8602 57.268 88.0642 57.04 88.1602 56.704C88.2802 56.344 88.3402 55.804 88.3402 55.084V47.02C88.3402 46.3 88.2802 45.772 88.1602 45.436C88.0642 45.076 87.8602 44.836 87.5482 44.716C87.2602 44.596 86.8042 44.536 86.1802 44.536C86.1082 44.536 86.0722 44.464 86.0722 44.32C86.0722 44.176 86.1082 44.104 86.1802 44.104C86.8042 44.104 87.2962 44.116 87.6562 44.14L89.6002 44.176L91.5082 44.14C91.8682 44.116 92.3602 44.104 92.9842 44.104C93.0322 44.104 93.0562 44.176 93.0562 44.32C93.0562 44.464 93.0322 44.536 92.9842 44.536C92.3362 44.536 91.8562 44.608 91.5442 44.752C91.2562 44.896 91.0522 45.148 90.9322 45.508C90.8362 45.844 90.7882 46.372 90.7882 47.092V54.112L98.0242 46.876C98.0242 46.204 97.9642 45.712 97.8442 45.4C97.7482 45.064 97.5442 44.836 97.2322 44.716C96.9442 44.596 96.4882 44.536 95.8642 44.536C95.7922 44.536 95.7562 44.464 95.7562 44.32C95.7562 44.176 95.7922 44.104 95.8642 44.104C96.4882 44.104 96.9802 44.116 97.3402 44.14L99.2842 44.176L101.192 44.14C101.552 44.116 102.044 44.104 102.668 44.104C102.716 44.104 102.74 44.176 102.74 44.32C102.74 44.464 102.716 44.536 102.668 44.536C102.02 44.536 101.54 44.608 101.228 44.752C100.94 44.896 100.736 45.148 100.616 45.508C100.52 45.844 100.472 46.372 100.472 47.092V55.084C100.472 55.804 100.52 56.344 100.616 56.704C100.736 57.04 100.94 57.268 101.228 57.388C101.54 57.508 102.02 57.568 102.668 57.568ZM117.157 55.876C117.229 55.876 117.289 55.924 117.337 56.02C117.409 56.092 117.421 56.164 117.373 56.236C116.533 57.004 115.669 57.568 114.781 57.928C113.917 58.264 112.981 58.432 111.973 58.432C110.533 58.432 109.285 58.12 108.229 57.496C107.197 56.848 106.405 55.996 105.853 54.94C105.325 53.884 105.061 52.744 105.061 51.52C105.061 50.104 105.397 48.808 106.069 47.632C106.765 46.432 107.713 45.496 108.913 44.824C110.137 44.128 111.481 43.78 112.945 43.78C114.289 43.78 115.333 44.104 116.077 44.752C116.821 45.376 117.193 46.24 117.193 47.344C117.193 47.944 117.061 48.244 116.797 48.244H115.069L107.977 48.316C107.881 48.796 107.833 49.384 107.833 50.08C107.833 52.144 108.325 53.812 109.309 55.084C110.317 56.356 111.697 56.992 113.449 56.992C114.841 56.992 116.065 56.62 117.121 55.876H117.157ZM111.685 44.5C110.797 44.5 110.041 44.788 109.417 45.364C108.793 45.916 108.349 46.708 108.085 47.74L114.277 47.596C114.253 46.636 114.013 45.88 113.557 45.328C113.101 44.776 112.477 44.5 111.685 44.5ZM136.278 57.568C136.326 57.568 136.35 57.64 136.35 57.784C136.35 57.928 136.326 58 136.278 58C135.63 58 135.126 57.988 134.766 57.964L132.894 57.928L130.914 57.964C130.554 57.988 130.062 58 129.438 58C129.366 58 129.33 57.928 129.33 57.784C129.33 57.64 129.366 57.568 129.438 57.568C130.086 57.568 130.554 57.508 130.842 57.388C131.154 57.268 131.358 57.04 131.454 56.704C131.574 56.344 131.634 55.804 131.634 55.084V51.412H124.398V55.084C124.398 55.804 124.446 56.344 124.542 56.704C124.662 57.04 124.866 57.268 125.154 57.388C125.466 57.508 125.946 57.568 126.594 57.568C126.642 57.568 126.666 57.64 126.666 57.784C126.666 57.928 126.642 58 126.594 58C125.946 58 125.442 57.988 125.082 57.964L123.21 57.928L121.266 57.964C120.906 57.988 120.402 58 119.754 58C119.682 58 119.646 57.928 119.646 57.784C119.646 57.64 119.682 57.568 119.754 57.568C120.402 57.568 120.87 57.508 121.158 57.388C121.47 57.268 121.674 57.04 121.77 56.704C121.89 56.344 121.95 55.804 121.95 55.084V47.02C121.95 46.3 121.89 45.772 121.77 45.436C121.674 45.076 121.47 44.836 121.158 44.716C120.87 44.596 120.414 44.536 119.79 44.536C119.718 44.536 119.682 44.464 119.682 44.32C119.682 44.176 119.718 44.104 119.79 44.104C120.414 44.104 120.906 44.116 121.266 44.14L123.21 44.176L125.118 44.14C125.478 44.116 125.97 44.104 126.594 44.104C126.642 44.104 126.666 44.176 126.666 44.32C126.666 44.464 126.642 44.536 126.594 44.536C125.946 44.536 125.466 44.608 125.154 44.752C124.866 44.896 124.662 45.148 124.542 45.508C124.446 45.844 124.398 46.372 124.398 47.092V50.692H131.634V47.02C131.634 46.3 131.574 45.772 131.454 45.436C131.358 45.076 131.154 44.836 130.842 44.716C130.554 44.596 130.098 44.536 129.474 44.536C129.402 44.536 129.366 44.464 129.366 44.32C129.366 44.176 129.402 44.104 129.474 44.104C130.098 44.104 130.59 44.116 130.95 44.14L132.894 44.176L134.802 44.14C135.162 44.116 135.654 44.104 136.278 44.104C136.326 44.104 136.35 44.176 136.35 44.32C136.35 44.464 136.326 44.536 136.278 44.536C135.63 44.536 135.15 44.608 134.838 44.752C134.55 44.896 134.346 45.148 134.226 45.508C134.13 45.844 134.082 46.372 134.082 47.092V55.084C134.082 55.804 134.13 56.344 134.226 56.704C134.346 57.04 134.55 57.268 134.838 57.388C135.15 57.508 135.63 57.568 136.278 57.568ZM154.186 57.568C154.234 57.568 154.258 57.64 154.258 57.784C154.258 57.928 154.234 58 154.186 58H150.082C149.89 58 149.734 57.952 149.614 57.856C149.518 57.76 149.302 57.436 148.966 56.884C148.63 56.308 148.174 55.528 147.598 54.544C146.998 53.536 146.506 52.804 146.122 52.348C145.738 51.868 145.342 51.544 144.934 51.376C144.55 51.184 144.046 51.088 143.422 51.088H143.026V55.084C143.026 55.804 143.074 56.344 143.17 56.704C143.29 57.04 143.494 57.268 143.782 57.388C144.094 57.508 144.562 57.568 145.186 57.568C145.234 57.568 145.258 57.64 145.258 57.784C145.258 57.928 145.234 58 145.186 58C144.562 58 144.07 57.988 143.71 57.964L141.838 57.928L139.858 57.964C139.498 57.988 139.006 58 138.382 58C138.31 58 138.274 57.928 138.274 57.784C138.274 57.64 138.31 57.568 138.382 57.568C139.03 57.568 139.498 57.508 139.786 57.388C140.074 57.268 140.266 57.04 140.362 56.704C140.482 56.368 140.542 55.828 140.542 55.084V47.02C140.542 46.3 140.494 45.772 140.398 45.436C140.302 45.076 140.098 44.836 139.786 44.716C139.498 44.596 139.042 44.536 138.418 44.536C138.346 44.536 138.31 44.464 138.31 44.32C138.31 44.176 138.346 44.104 138.418 44.104C139.018 44.104 139.498 44.116 139.858 44.14L141.838 44.176L143.998 44.14C144.382 44.116 144.91 44.104 145.582 44.104C145.654 44.104 145.69 44.176 145.69 44.32C145.69 44.464 145.654 44.536 145.582 44.536C144.838 44.536 144.286 44.608 143.926 44.752C143.59 44.872 143.35 45.112 143.206 45.472C143.086 45.808 143.026 46.348 143.026 47.092V50.512C143.842 50.44 144.526 50.404 145.078 50.404C145.63 50.404 146.218 49.804 146.842 48.604C147.49 47.332 148.018 46.372 148.426 45.724C148.834 45.076 149.254 44.596 149.686 44.284C150.118 43.948 150.61 43.78 151.162 43.78C151.738 43.78 152.182 43.912 152.494 44.176C152.806 44.44 152.962 44.776 152.962 45.184C152.962 45.616 152.818 45.976 152.53 46.264C152.242 46.552 151.858 46.696 151.378 46.696C151.09 46.696 150.778 46.6 150.442 46.408C150.154 46.264 149.902 46.192 149.686 46.192C149.134 46.192 148.39 47.068 147.454 48.82C147.046 49.588 146.674 50.14 146.338 50.476C147.13 50.572 147.754 50.836 148.21 51.268C148.666 51.7 149.302 52.552 150.118 53.824L150.73 54.796C151.162 55.54 151.51 56.08 151.774 56.416C152.038 56.752 152.35 57.028 152.71 57.244C153.094 57.436 153.586 57.544 154.186 57.568ZM161.935 58.468C160.519 58.468 159.271 58.132 158.191 57.46C157.111 56.764 156.271 55.84 155.671 54.688C155.095 53.512 154.807 52.24 154.807 50.872C154.807 49.312 155.191 47.992 155.959 46.912C156.727 45.808 157.711 44.992 158.911 44.464C160.111 43.912 161.335 43.636 162.583 43.636C163.999 43.636 165.247 43.984 166.327 44.68C167.407 45.376 168.235 46.3 168.811 47.452C169.387 48.58 169.675 49.78 169.675 51.052C169.675 52.516 169.315 53.812 168.595 54.94C167.899 56.068 166.963 56.944 165.787 57.568C164.611 58.168 163.327 58.468 161.935 58.468ZM162.979 57.784C164.179 57.784 165.103 57.316 165.751 56.38C166.399 55.444 166.723 54.04 166.723 52.168C166.723 50.608 166.483 49.24 166.003 48.064C165.547 46.864 164.911 45.952 164.095 45.328C163.279 44.68 162.367 44.356 161.359 44.356C160.183 44.356 159.271 44.812 158.623 45.724C157.999 46.612 157.687 47.932 157.687 49.684C157.687 51.196 157.915 52.576 158.371 53.824C158.827 55.048 159.451 56.02 160.243 56.74C161.059 57.436 161.971 57.784 162.979 57.784Z" fill="#DECBA4"/>
<circle cx="27" cy="44" r="2.5" fill="white" stroke="white"/>
</svg>
