<svg width="15" height="15" viewBox="0 0 15 15" fill="none" xmlns="http://www.w3.org/2000/svg">
<path d="M7.50258 0.299805H7.49898C3.52908 0.299805 0.300781 3.529 0.300781 7.4998C0.300781 9.0748 0.808381 10.5346 1.67148 11.7199L0.774181 14.3947L3.54168 13.51C4.68018 14.2642 6.03828 14.6998 7.50258 14.6998C11.4725 14.6998 14.7008 11.4697 14.7008 7.4998C14.7008 3.5299 11.4725 0.299805 7.50258 0.299805ZM11.6921 10.4671C11.5184 10.9576 10.829 11.3644 10.2791 11.4832C9.90288 11.5633 9.41148 11.6272 7.75728 10.9414C5.64138 10.0648 4.27878 7.9147 4.17258 7.7752C4.07088 7.6357 3.31758 6.6367 3.31758 5.6035C3.31758 4.5703 3.84228 4.0672 4.05378 3.8512C4.22748 3.6739 4.51458 3.5929 4.78998 3.5929C4.87908 3.5929 4.95918 3.5974 5.03118 3.601C5.24268 3.61 5.34888 3.6226 5.48838 3.9565C5.66208 4.375 6.08508 5.4082 6.13548 5.5144C6.18678 5.6206 6.23808 5.7646 6.16608 5.9041C6.09858 6.0481 6.03918 6.112 5.93298 6.2344C5.82678 6.3568 5.72598 6.4504 5.61978 6.5818C5.52258 6.6961 5.41278 6.8185 5.53518 7.03C5.65758 7.237 6.08058 7.9273 6.70338 8.4817C7.50708 9.1972 8.15868 9.4258 8.39178 9.523C8.56548 9.595 8.77248 9.5779 8.89938 9.4429C9.06048 9.2692 9.25938 8.9812 9.46188 8.6977C9.60588 8.4943 9.78768 8.4691 9.97848 8.5411C10.1729 8.6086 11.2016 9.1171 11.4131 9.2224C11.6246 9.3286 11.7641 9.379 11.8154 9.4681C11.8658 9.5572 11.8658 9.9757 11.6921 10.4671Z" fill="white"/>
</svg>
